<?xml version="1.0" standalone="no"?>
<!DOCTYPE svg PUBLIC "-//W3C//DTD SVG 20010904//EN"
 "http://www.w3.org/TR/2001/REC-SVG-20010904/DTD/svg10.dtd">
<svg version="1.0" xmlns="http://www.w3.org/2000/svg"
 width="168.000000pt" height="33.000000pt" viewBox="0 0 168.000000 33.000000"
 preserveAspectRatio="xMidYMid meet">

<g transform="translate(0.000000,33.000000) scale(0.100000,-0.100000)"
fill="#000000" stroke="none">
<path d="M0 165 l0 -165 840 0 840 0 0 165 0 165 -840 0 -840 0 0 -165z m298
47 c4 -29 26 -24 30 7 3 18 9 22 30 19 26 -3 27 -5 30 -75 l3 -73 -31 0 c-25
0 -30 4 -30 25 0 16 -6 25 -15 25 -9 0 -15 -9 -15 -25 0 -21 -5 -25 -30 -25
l-30 0 0 76 0 75 28 -3 c19 -2 28 -9 30 -26z m216 17 c37 -17 51 -60 32 -97
-17 -33 -34 -42 -77 -42 -66 0 -95 88 -43 129 30 24 52 26 88 10z m116 -39 c0
-46 2 -50 23 -50 18 0 23 -5 22 -22 -1 -20 -8 -23 -53 -26 l-52 -3 0 75 0 76
30 0 c29 0 30 -1 30 -50z m99 33 c9 -17 11 -17 23 0 9 12 23 18 41 15 l27 -3
-25 -37 c-15 -22 -25 -51 -25 -72 0 -33 -2 -36 -30 -36 -27 0 -30 3 -30 30 0
17 -11 48 -25 70 -14 22 -25 42 -25 45 0 14 60 3 69 -12z m195 11 c9 -3 16
-17 16 -31 0 -20 -4 -23 -20 -18 -45 14 -78 -18 -46 -44 12 -10 13 -8 9 8 -5
18 -1 21 26 21 31 0 32 -1 29 -37 -3 -36 -5 -38 -41 -41 -69 -6 -111 41 -87
98 17 40 70 61 114 44z m144 -10 c23 -16 29 -48 12 -59 -6 -4 -4 -18 7 -38
l16 -32 26 73 c25 69 27 73 55 70 26 -3 32 -10 52 -63 30 -79 30 -85 -6 -85
-16 0 -30 5 -30 10 0 6 -9 10 -20 10 -11 0 -20 -4 -20 -10 0 -6 -27 -10 -60
-10 -54 0 -62 3 -70 23 l-9 22 0 -22 c-1 -19 -7 -23 -31 -23 l-30 0 0 75 0 75
43 0 c23 0 53 -7 65 -16z m275 -4 l14 -20 18 20 c10 11 29 20 42 20 22 0 23
-3 23 -75 l0 -75 -30 0 c-27 0 -30 3 -30 31 0 27 -2 30 -15 19 -10 -9 -15 -9
-15 -1 0 6 -4 11 -10 11 -5 0 -10 -14 -10 -31 0 -27 -3 -30 -27 -27 -27 3 -28
6 -31 62 -2 32 -1 65 2 72 8 21 53 17 69 -6z"/>
<path d="M461 176 c-14 -17 -7 -36 14 -36 22 0 29 20 13 36 -13 13 -16 13 -27
0z"/>
<path d="M1020 184 c0 -8 5 -12 10 -9 6 4 8 11 5 16 -9 14 -15 11 -15 -7z"/>
<path d="M1175 151 c-3 -5 -1 -12 5 -16 5 -3 10 1 10 9 0 18 -6 21 -15 7z"/>
</g>
</svg>
